<svg width="40" height="38" viewBox="0 0 40 38" fill="none" xmlns="http://www.w3.org/2000/svg">
<g clip-path="url(#clip0_34_992)">
<path opacity="0.996078" d="M9.80005 2.9231L11.2 2.98953L9.80005 3.05596V2.9231Z" fill="white" stroke="white"/>
<path opacity="0.996078" d="M37.2666 4.7832L37.3999 5.04894" stroke="white"/>
<path opacity="0.996078" d="M3.66678 5.18176L3.53345 5.4475" stroke="white"/>
<path opacity="0.996078" d="M18.7334 5.71326L18.8667 5.97899" stroke="white"/>
<path opacity="0.996078" d="M37.1333 6.37756L35.9333 7.70623" stroke="white"/>
<path opacity="0.996078" d="M2.19998 6.64331L2.06665 6.90904" stroke="white"/>
<path opacity="0.996078" d="M19.9333 6.90906L20.0667 7.04192L23.7333 7.10836L20.0667 7.17479L19.9333 6.90906Z" fill="white" stroke="white"/>
<path opacity="0.996078" d="M35.1333 7.1748L35.4 7.57341" stroke="white"/>
<path opacity="0.996078" d="M36.8667 8.37061L38.1334 8.43704L36.8667 8.50347V8.37061Z" fill="white" stroke="white"/>
<path opacity="0.996078" d="M34.4666 8.76929L34.3333 9.03502" stroke="white"/>
<path opacity="0.996078" d="M39.9334 8.9021L40 9.23427H39.8667L39.9334 8.9021Z" fill="white" stroke="white"/>
<path opacity="0.996078" d="M36.4666 9.56641L37.7332 9.63284L36.4666 9.69927V9.56641Z" fill="white" stroke="white"/>
<path opacity="0.996078" d="M39.2666 9.56641L39.5999 9.63284L39.2666 9.69927V9.56641Z" fill="white" stroke="white"/>
<path opacity="0.996078" d="M31.2666 10.3636L31.5999 10.4301L31.2666 10.4965V10.3636Z" fill="white" stroke="white"/>
<path opacity="0.996078" d="M23.3999 10.4965L30.5332 10.5629L23.3999 10.6293V10.4965Z" fill="white" stroke="white"/>
<path opacity="0.996078" d="M0.199967 10.8951L0.266634 11.2273H0.133301L0.199967 10.8951Z" fill="white" stroke="white"/>
<path opacity="0.996078" d="M35.5334 11.5594L36.0668 12.2238" stroke="white"/>
<path opacity="0.996078" d="M0.199967 12.8881L0.266634 13.7517H0.133301L0.199967 12.8881Z" fill="white" stroke="white"/>
<path opacity="0.996078" d="M23.1333 18.6014L23.2 18.9336H23.0667L23.1333 18.6014Z" fill="white" stroke="white"/>
<path opacity="0.996078" d="M23.2666 19.6643L23.3333 19.9965H23.2L23.2666 19.6643Z" fill="white" stroke="white"/>
<path opacity="0.996078" d="M2.06667 22.8531L2.13333 24.1154H2L2.06667 22.8531Z" fill="white" stroke="white"/>
<path opacity="0.996078" d="M2.06667 24.3147L2.13333 25.3112H2L2.06667 24.3147Z" fill="white" stroke="white"/>
<path opacity="0.996078" d="M1.26662 29.3636C1.2044 29.966 1.35995 30.3424 1.73328 30.493L1.19995 30.0944L1.26662 29.3636Z" fill="white" stroke="white"/>
<path opacity="0.996078" d="M20.2 30.958L20.0667 31.2237" stroke="white"/>
<path opacity="0.996078" d="M19.1334 31.8881L18.7334 32.4195" stroke="white"/>
<path opacity="0.996078" d="M4.06665 32.8182L4.86665 33.7483" stroke="white"/>
<path opacity="0.996078" d="M18.3333 33.2168L18.3999 33.6818H18.2666L18.3333 33.2168Z" fill="white" stroke="white"/>
<path opacity="0.996078" d="M5.66675 34.2797L5.80008 34.5454" stroke="white"/>
<path opacity="0.996078" d="M18.4666 35.8741L18.3333 36.1399" stroke="white"/>
<path opacity="0.996078" d="M12.8667 37.8672L13.3334 37.9336L12.8667 38.0001V37.8672Z" fill="white" stroke="white"/>
<path opacity="0.619608" d="M8.8667 2.9231L9.73337 2.98953L8.8667 3.05596V2.9231Z" fill="#070707" stroke="#070707"/>
<path opacity="0.619608" d="M11.2666 2.9231L12.2666 2.98953L11.2666 3.05596V2.9231Z" fill="#070707" stroke="#070707"/>
<path opacity="0.619608" d="M8.06665 3.05591L8.53332 3.12234L8.06665 3.18878V3.05591Z" fill="#070707" stroke="#070707"/>
<path opacity="0.619608" d="M12.6001 3.05591L13.2001 3.12234L12.6001 3.18878V3.05591Z" fill="#070707" stroke="#070707"/>
<path opacity="0.619608" d="M7.53345 3.18884L7.86678 3.25528L7.53345 3.32171V3.18884Z" fill="#070707" stroke="#070707"/>
<path opacity="0.619608" d="M13.3999 3.18884L13.7332 3.25528L13.3999 3.32171V3.18884Z" fill="#070707" stroke="#070707"/>
<path opacity="0.619608" d="M7 3.32166L7.33333 3.38809L7 3.45452V3.32166Z" fill="#070707" stroke="#070707"/>
<path opacity="0.619608" d="M6.59992 3.45459L6.79992 3.52102L6.33325 3.72032V3.58746L6.59992 3.45459Z" fill="#070707" stroke="#070707"/>
<path opacity="0.619608" d="M5.93341 3.72034L6.13341 3.78677L5.66675 3.98607V3.8532L5.93341 3.72034Z" fill="#070707" stroke="#070707"/>
<path opacity="0.619608" d="M15.6667 3.85315L16.4001 4.18532L16.2001 4.25175L15.6667 3.98602V3.85315Z" fill="#070707" stroke="#070707"/>
<path opacity="0.619608" d="M5.40007 3.98596L5.26673 4.2517L4.7334 4.51743L4.86673 4.2517L5.40007 3.98596Z" fill="#070707" stroke="#070707"/>
<path opacity="0.619608" d="M16.8667 4.38464L17.3334 4.71681L17.1334 4.65038L16.8667 4.38464Z" fill="#070707" stroke="#070707"/>
<path opacity="0.619608" d="M34.2 4.38464L34.0667 4.65038" stroke="#070707"/>
<path opacity="0.619608" d="M4.46659 4.51746L4.33325 4.78319" stroke="#070707"/>
<path opacity="0.619608" d="M34.8667 4.51746C35.0711 4.58832 35.1378 4.78762 35.0667 5.11536H34.9334L34.8667 4.51746Z" fill="#070707" stroke="#070707"/>
<path opacity="0.619608" d="M4.06672 4.7832L3.80005 5.1818" stroke="#070707"/>
<path opacity="0.619608" d="M17.5334 4.7832L18.1334 5.24824L17.8001 5.04894L17.5334 4.7832Z" fill="#070707" stroke="#070707"/>
<path opacity="0.619608" d="M33.9334 4.7832L33.8 5.04894" stroke="#070707"/>
<path opacity="0.619608" d="M36.8666 4.7832L35.2666 6.51048" stroke="#070707"/>
<path opacity="0.619608" d="M37.3999 4.7832L37.7999 5.31467" stroke="#070707"/>
<path opacity="0.619608" d="M3.53332 5.18176L2.06665 6.77617" stroke="#070707"/>
<path opacity="0.619608" d="M33.6668 5.18176L33.5334 5.4475" stroke="#070707"/>
<path opacity="0.619608" d="M18.3333 5.3147L18.5999 5.7133" stroke="#070707"/>
<path opacity="0.619608" d="M34.8667 5.3147L34.9334 5.514L34.7334 5.84617L34.6667 5.64687L34.8667 5.3147Z" fill="#070707" stroke="#070707"/>
<path opacity="0.619608" d="M37.8 5.58044L37.8666 5.77975L37.2 6.31121L37.8 5.58044Z" fill="#070707" stroke="#070707"/>
<path opacity="0.619608" d="M18.8667 5.71326L20.0667 7.04193" stroke="#070707"/>
<path opacity="0.619608" d="M33.3999 5.979L33.5332 6.24474" stroke="#070707"/>
<path opacity="0.619608" d="M34.6 5.979L34.6667 6.1783C34.6222 6.44404 34.4222 6.55476 34.0667 6.51047V6.37761L34.5333 6.1783L34.6 5.979Z" fill="#070707" stroke="#070707"/>
<path opacity="0.619608" d="M1.93341 6.90906L1.66675 7.30766" stroke="#070707"/>
<path opacity="0.619608" d="M36.7333 6.90906L36.0667 7.70626" stroke="#070707"/>
<path opacity="0.619608" d="M23.8 7.04199L30.4 7.10843L23.8 7.17486V7.04199Z" fill="#070707" stroke="#070707"/>
<path opacity="0.619608" d="M30.7334 7.1748L31.0667 7.24124L30.7334 7.30767V7.1748Z" fill="#070707" stroke="#070707"/>
<path opacity="0.619608" d="M31.2666 7.30774L31.9999 7.50704L31.7999 7.57347L31.2666 7.44061V7.30774Z" fill="#070707" stroke="#070707"/>
<path opacity="0.619608" d="M1.53324 7.44055L1.3999 7.70629" stroke="#070707"/>
<path opacity="0.619608" d="M35.5334 7.57349L35.8668 7.77279L35.6668 7.83922L35.5334 7.57349Z" fill="#070707" stroke="#070707"/>
<path opacity="0.619608" d="M1.13338 8.10486L1.06672 8.30416L0.866715 8.76919L0.800049 8.56989L1.13338 8.10486Z" fill="#070707" stroke="#070707"/>
<path opacity="0.619608" d="M35.9334 8.37061L36 9.23424H35.8667L35.9334 8.37061Z" fill="#070707" stroke="#070707"/>
<path opacity="0.619608" d="M38.2 8.37061L39.7333 8.43704L38.2 8.50347V8.37061Z" fill="#070707" stroke="#070707"/>
<path opacity="0.619608" d="M34.5999 8.76929L34.4666 9.03502" stroke="#070707"/>
<path opacity="0.619608" d="M33.6666 9.30066L33.5333 9.56639L33.2666 9.69926L33.3999 9.43353L33.6666 9.30066Z" fill="#070707" stroke="#070707"/>
<path opacity="0.619608" d="M39.9334 9.30066L40.0001 9.49996L39.6667 9.69926V9.56639C39.889 9.6284 39.9779 9.53982 39.9334 9.30066Z" fill="#070707" stroke="#070707"/>
<path opacity="0.619608" d="M36.0667 9.43359L36.4 9.63289L36.2 9.69933L36.0667 9.43359Z" fill="#070707" stroke="#070707"/>
<path opacity="0.619608" d="M0.466602 9.56641L0.533268 9.76571L0.333268 10.2307L0.266602 9.89857L0.466602 9.56641Z" fill="#070707" stroke="#070707"/>
<path opacity="0.619608" d="M37.8 9.69934L39.2 9.76577L37.8 9.83221V9.69934Z" fill="#070707" stroke="#070707"/>
<path opacity="0.619608" d="M32.4667 9.96509L32.3334 10.2308L31.6667 10.4966V10.3637L32.4667 9.96509Z" fill="#070707" stroke="#070707"/>
<path opacity="0.619608" d="M35.7999 10.2307L38.3999 12.6888L37.7999 13.5524L38.1333 13.0874L38.2666 12.6888L35.7999 10.3636L35.3333 10.6957L35.7999 10.2307Z" fill="#070707" stroke="#070707"/>
<path opacity="0.619608" d="M0.199967 10.4965L0.266634 10.8286H0.133301L0.199967 10.4965Z" fill="#070707" stroke="#070707"/>
<path opacity="0.619608" d="M30.6001 10.4965L31.3334 10.5629L30.6001 10.6293V10.4965Z" fill="#070707" stroke="#070707"/>
<path opacity="0.619608" d="M23.1334 10.6294L23.3334 10.6958L23.0668 10.7623L23.2001 11.3602L22.9334 11.2273C22.8712 10.8996 22.9379 10.7003 23.1334 10.6294Z" fill="#070707" stroke="#070707"/>
<path opacity="0.619608" d="M35.2666 11.2937L35.3999 11.5594" stroke="#070707"/>
<path opacity="0.619608" d="M0.0666667 11.4265L0.133333 12.2901H0L0.0666667 11.4265Z" fill="#070707" stroke="#070707"/>
<path opacity="0.619608" d="M34.4667 11.4265L34.9334 11.7587L34.6001 11.5594L33.8667 12.0244C33.8134 12.4319 33.9023 12.6976 34.1334 12.8216L33.8667 12.6888L33.7334 12.0244L34.4667 11.4265Z" fill="#070707" stroke="#070707"/>
<path opacity="0.619608" d="M35 11.958L35.4667 12.6888L35.2 12.5559L35 11.958Z" fill="#070707" stroke="#070707"/>
<path opacity="0.619608" d="M23.5332 12.2238L23.5999 12.5559H23.4666L23.5332 12.2238Z" fill="#070707" stroke="#070707"/>
<path opacity="0.619608" d="M36.2 12.2238L37.4 13.5524" stroke="#070707"/>
<path opacity="0.619608" d="M23.6668 12.7552L23.7334 13.0874H23.6001L23.6668 12.7552Z" fill="#070707" stroke="#070707"/>
<path opacity="0.619608" d="M35.5333 12.8881L35.5999 13.2202L35.3333 13.3531L35.5333 12.8881Z" fill="#070707" stroke="#070707"/>
<path opacity="0.619608" d="M34.2 13.021L34.3333 13.2867" stroke="#070707"/>
<path opacity="0.619608" d="M23.8001 13.2867L23.8667 13.6189H23.7334L23.8001 13.2867Z" fill="#070707" stroke="#070707"/>
<path opacity="0.619608" d="M34.4666 13.4196L34.9332 13.7517L34.7332 13.8182L34.4666 13.4196Z" fill="#070707" stroke="#070707"/>
<path opacity="0.619608" d="M0.199967 13.8182L0.266634 14.6819H0.133301L0.199967 13.8182Z" fill="#070707" stroke="#070707"/>
<path opacity="0.619608" d="M23.9334 13.951L24 14.9476H23.8667L23.9334 13.951Z" fill="#070707" stroke="#070707"/>
<path opacity="0.619608" d="M0.333268 15.014L0.399935 15.7448H0.266602L0.333268 15.014Z" fill="#070707" stroke="#070707"/>
<path opacity="0.619608" d="M23.8001 15.2797L23.8668 15.479L23.6668 15.8111L23.6001 15.6118L23.8001 15.2797Z" fill="#070707" stroke="#070707"/>
<path opacity="0.619608" d="M0.466569 15.9441L0.533236 16.4091H0.399902L0.466569 15.9441Z" fill="#070707" stroke="#070707"/>
<path opacity="0.619608" d="M0.600114 16.7412L0.666781 17.0734H0.533447L0.600114 16.7412Z" fill="#070707" stroke="#070707"/>
<path opacity="0.619608" d="M0.733415 17.2727L0.800081 17.6049H0.666748L0.733415 17.2727Z" fill="#070707" stroke="#070707"/>
<path opacity="0.619608" d="M23.1333 17.4056L23.2 17.7378H23.0667L23.1333 17.4056Z" fill="#070707" stroke="#070707"/>
<path opacity="0.619608" d="M23.1333 17.937L23.2 18.5349H23.0667L23.1333 17.937Z" fill="#070707" stroke="#070707"/>
<path opacity="0.619608" d="M1.00002 18.4685L1.06668 18.8007H0.93335L1.00002 18.4685Z" fill="#070707" stroke="#070707"/>
<path opacity="0.619608" d="M23.2666 19.1328L23.3333 19.5978H23.2L23.2666 19.1328Z" fill="#070707" stroke="#070707"/>
<path opacity="0.619608" d="M23.3999 19.9301L23.4666 20.528H23.3333L23.3999 19.9301Z" fill="#070707" stroke="#070707"/>
<path opacity="0.619608" d="M1.53322 20.4615L1.59989 20.7937H1.46655L1.53322 20.4615Z" fill="#070707" stroke="#070707"/>
<path opacity="0.619608" d="M1.66676 20.993L1.73343 21.3252H1.6001L1.66676 20.993Z" fill="#070707" stroke="#070707"/>
<path opacity="0.619608" d="M23.5332 20.993L23.5999 21.8567H23.4666L23.5332 20.993Z" fill="#070707" stroke="#070707"/>
<path opacity="0.619608" d="M1.80007 21.6573L1.86673 21.9895H1.7334L1.80007 21.6573Z" fill="#070707" stroke="#070707"/>
<path opacity="0.619608" d="M1.93337 22.3217L2.00003 22.9196H1.8667L1.93337 22.3217Z" fill="#070707" stroke="#070707"/>
<path opacity="0.619608" d="M23.3999 22.3217L23.4666 22.6538H23.3333L23.3999 22.3217Z" fill="#070707" stroke="#070707"/>
<path opacity="0.619608" d="M23.1333 23.2517L23.2 23.5839H23.0667L23.1333 23.2517Z" fill="#070707" stroke="#070707"/>
<path opacity="0.619608" d="M1.93337 25.3776L2.00003 25.9755H1.8667L1.93337 25.3776Z" fill="#070707" stroke="#070707"/>
<path opacity="0.619608" d="M22.3333 25.3776L22.4 25.5769L22.2 25.909L22.1333 25.7097L22.3333 25.3776Z" fill="#070707" stroke="#070707"/>
<path opacity="0.619608" d="M22.0667 26.042L22.1333 26.3742H22L22.0667 26.042Z" fill="#070707" stroke="#070707"/>
<path opacity="0.619608" d="M1.80007 26.3077L1.86673 26.6399H1.7334L1.80007 26.3077Z" fill="#070707" stroke="#070707"/>
<path opacity="0.619608" d="M21.6668 27.5035L21.7334 27.8357H21.6001L21.6668 27.5035Z" fill="#070707" stroke="#070707"/>
<path opacity="0.619608" d="M1.39992 27.6364L1.46659 28.1014H1.33325L1.39992 27.6364Z" fill="#070707" stroke="#070707"/>
<path opacity="0.619608" d="M1.26662 28.4336L1.33328 29.2972H1.19995L1.26662 28.4336Z" fill="#070707" stroke="#070707"/>
<path opacity="0.619608" d="M20.8666 29.7622L20.9332 29.9615L20.4666 30.6923L20.5332 30.493L20.8666 29.7622Z" fill="#070707" stroke="#070707"/>
<path opacity="0.619608" d="M1.2666 30.1609L4.4666 33.4826" stroke="#070707"/>
<path opacity="0.619608" d="M20.2001 31.0909L19.6667 31.7553" stroke="#070707"/>
<path opacity="0.619608" d="M19.4 31.7552L19.1333 32.1539" stroke="#070707"/>
<path opacity="0.619608" d="M18.7332 32.4196L18.6666 32.6189L18.4666 33.2168L18.3999 32.8846L18.7332 32.4196Z" fill="#070707" stroke="#070707"/>
<path opacity="0.619608" d="M5 33.7483L5.66667 34.5455" stroke="#070707"/>
<path opacity="0.619608" d="M18.4666 33.8811L18.6666 34.2133L18.3999 34.0804L18.4666 33.8811Z" fill="#070707" stroke="#070707"/>
<path opacity="0.619608" d="M5.93335 34.5454L6.33335 35.0769" stroke="#070707"/>
<path opacity="0.619608" d="M18.8667 34.8112L18.9334 35.2762H18.8L18.8667 34.8112Z" fill="#070707" stroke="#070707"/>
<path opacity="0.619608" d="M6.6001 35.0769L7.2001 35.5419L7.0001 35.4755L6.6001 35.0769Z" fill="#070707" stroke="#070707"/>
<path opacity="0.619608" d="M18.7334 35.6084L18.6001 35.8741" stroke="#070707"/>
<path opacity="0.619608" d="M8.19995 36.007L8.33328 36.2727" stroke="#070707"/>
<path opacity="0.619608" d="M18.2 36.1399L17.8 36.6714" stroke="#070707"/>
<path opacity="0.619608" d="M8.8667 36.4056L9.33337 36.7378L9.13337 36.6714L8.8667 36.4056Z" fill="#070707" stroke="#070707"/>
<path opacity="0.619608" d="M17.5332 36.6714L17.3999 36.9371" stroke="#070707"/>
<path opacity="0.619608" d="M9.53345 36.8042L10.6668 37.4021L10.4668 37.4685L9.66678 37.0699L9.53345 36.8042Z" fill="#070707" stroke="#070707"/>
<path opacity="0.619608" d="M17.1334 36.937L17.0001 37.2027L16.6001 37.3356V37.2027L17.1334 36.937Z" fill="#070707" stroke="#070707"/>
<path opacity="0.619608" d="M15.2666 37.6014L15.5999 37.6679L15.2666 37.7343V37.6014Z" fill="#070707" stroke="#070707"/>
<path opacity="0.619608" d="M11.5334 37.7343L11.8668 37.8007L11.5334 37.8671V37.7343Z" fill="#070707" stroke="#070707"/>
<path opacity="0.619608" d="M14.4666 37.7343L14.9332 37.8007L14.4666 37.8671V37.7343Z" fill="#070707" stroke="#070707"/>
<path opacity="0.619608" d="M12.2 37.8672L12.8 37.9336L12.2 38.0001V37.8672Z" fill="#070707" stroke="#070707"/>
<path opacity="0.619608" d="M13.3999 37.8672L13.9999 37.9336L13.3999 38.0001V37.8672Z" fill="#070707" stroke="#070707"/>
<path d="M8.86663 3.05591H12.2L14.7333 3.58738C16.8311 4.28714 18.5422 5.37223 19.8666 6.84262L20.0666 7.17479H30.3333L31.9333 7.57339L34.4 8.83563L32.0666 10.2307L31.1333 10.4965H23.4L22.9333 10.6293V11.2272L23.3333 11.8916L23.7333 13.3531L23.8666 14.9475L23 17.8042L22.9333 16.9405L23.3333 15.5454C22.3911 15.5808 21.68 15.913 21.2 16.5419C20.9511 16.7811 20.8622 17.1797 20.9333 17.7377L21.6666 18.7342L22.7333 19C22.9911 18.8582 23.08 18.5482 23 18.0699L23.2 19.9965L23.4666 20.9265V21.9895L23.0666 23.5839L21.8666 26.3741L21.3333 28.6328L20.5333 30.493L19.6666 31.6223L18.6666 32.3531C18.3733 32.6366 18.24 33.0795 18.2666 33.6818C18.5777 34.0804 18.7555 34.6119 18.8 35.2762C18.6577 35.8874 18.3244 36.3081 17.8 36.5384C17.1955 37.0433 16.44 37.3976 15.5333 37.6014L14.0666 37.8671H12.2L10.4666 37.3356L6.3333 34.944L1.7333 30.6258L1.3333 30.0944V28.5L1.99997 26.2412L2.1333 22.9195L0.533301 16.4091L0.399967 14.8146L0.266634 14.6818L0.133301 11.3601C0.355523 11.2272 0.399967 10.9172 0.266634 10.43L1.06663 8.30416C1.68886 7.19693 2.46663 6.24472 3.39997 5.44752L5.9333 3.85311L8.86663 3.05591ZM8.79997 4.65031L7.86663 5.97899L6.79997 5.44752L6.26663 6.11185C6.35552 6.46616 6.31108 6.7319 6.1333 6.90905C6.22219 7.08621 6.1333 7.1305 5.86663 7.04192H5.59997H4.26663L3.99997 7.30766V7.70626L4.39997 8.50346V9.03493L3.19997 9.43353L2.79997 9.83213L3.46663 10.2307L4.9333 10.4965C5.11108 10.7622 5.15552 11.2051 5.06663 11.8251C5.15552 12.0023 5.37774 12.0466 5.7333 11.958L5.86663 12.2237L6.26663 14.0839L6.5333 14.2167H6.79997L7.7333 13.2867L9.19997 14.4825L9.7333 14.3496L10.1333 13.6853L10.6666 13.1538H12.2666L12.4 12.8881L12.2666 12.0909L12.6666 11.6923H13.7333L13.8666 11.5594C14.1333 11.648 14.2222 11.5594 14.1333 11.2937L13.2 10.4965L13.0666 10.2307L14 9.43353L14.4 8.90206L12.6666 7.70626L12.1333 7.30766L11.8666 6.24472L11.4666 5.58038H10.6666L9.19997 5.97899L9.06663 5.71325V4.78318L8.79997 4.65031ZM14.4 14.6153L13.3333 15.0139L12.2666 16.3426C12.1777 16.8741 12.3111 17.2727 12.6666 17.5384L13.2 17.937L14.6666 18.4685H16.2666L17.8666 17.4056L18.1333 16.8741L18 15.944L16.5333 14.6153H14.4ZM18.6666 24.7132L17.2 24.979L16 25.6433L15.6 26.4405L17.4666 27.7692L19.3333 28.1678C20.0444 28.2564 20.5777 28.1678 20.9333 27.9021L21.4666 27.3706L21.7333 26.4405L21.6 25.2447L20.9333 24.7132H18.6666Z" fill="white" stroke="white"/>
<path d="M34.1333 4.51746L34.9333 4.65032V5.11536L34.3333 6.3776L33.3333 5.91256L34.1333 4.51746Z" fill="white" stroke="white"/>
<path d="M37.1333 4.7832L37.7333 5.24824L37.6 5.91257L35.8 7.70628L35.0667 7.10838V6.70978L36.8667 4.91607L37.1333 4.7832Z" fill="white" stroke="white"/>
<path d="M36 8.37061L36.8667 8.50347H39.6667L39.8667 8.70277V9.56641H39.2667L39.1333 9.69928H37.8L37.6667 9.56641H36.1333C35.9644 9.31839 35.92 8.91979 36 8.37061Z" fill="white" stroke="white"/>
<path d="M35.9333 10.3636L38.2666 12.6888L38.1333 12.8217L37.8 13.4196H37.4L35.3333 11.3602C35.28 10.9084 35.3911 10.6205 35.6666 10.4965L35.9333 10.3636Z" fill="white" stroke="white"/>
<path d="M34.4667 11.5594L34.8 11.7587L35.4667 13.2203L34.7334 13.6853L33.8667 12.4231V12.0245L34.4667 11.5594Z" fill="white" stroke="white"/>
</g>
<defs>
<clipPath id="clip0_34_992">
<rect width="40" height="38" fill="white"/>
</clipPath>
</defs>
</svg>
